<?xml version="1.0" encoding="utf-8"?>
<svg version="1.1" xmlns:xlink="http://www.w3.org/1999/xlink" width="53px" height="43px" xmlns="http://www.w3.org/2000/svg">
  <g transform="matrix(1 0 0 1 -761 -674 )">
    <path d="M 762 678  A 3 3 0 0 1 765 675 L 810 675  A 3 3 0 0 1 813 678 L 813 713  A 3 3 0 0 1 810 716 L 765 716  A 3 3 0 0 1 762 713 L 762 678  Z " fill-rule="nonzero" fill="#7f7f7f" stroke="none" fill-opacity="0.168627450980392" />
    <path d="M 761.5 678  A 3.5 3.5 0 0 1 765 674.5 L 810 674.5  A 3.5 3.5 0 0 1 813.5 678 L 813.5 713  A 3.5 3.5 0 0 1 810 716.5 L 765 716.5  A 3.5 3.5 0 0 1 761.5 713 L 761.5 678  Z " stroke-width="1" stroke="#d7d7d7" fill="none" stroke-opacity="0.811764705882353" />
  </g>
</svg>