<?xml version="1.0" encoding="utf-8"?>
<svg version="1.1" xmlns:xlink="http://www.w3.org/1999/xlink" width="53px" height="43px" xmlns="http://www.w3.org/2000/svg">
  <g transform="matrix(1 0 0 1 -484 -2861 )">
    <path d="M 485 2865  A 3 3 0 0 1 488 2862 L 533 2862  A 3 3 0 0 1 536 2865 L 536 2900  A 3 3 0 0 1 533 2903 L 488 2903  A 3 3 0 0 1 485 2900 L 485 2865  Z " fill-rule="nonzero" fill="#d9001b" stroke="none" fill-opacity="0.243137254901961" />
    <path d="M 484.5 2865  A 3.5 3.5 0 0 1 488 2861.5 L 533 2861.5  A 3.5 3.5 0 0 1 536.5 2865 L 536.5 2900  A 3.5 3.5 0 0 1 533 2903.5 L 488 2903.5  A 3.5 3.5 0 0 1 484.5 2900 L 484.5 2865  Z " stroke-width="1" stroke="#d9001b" fill="none" stroke-opacity="0.494117647058824" />
  </g>
</svg>