<?xml version="1.0" encoding="utf-8"?>
<svg version="1.1" xmlns:xlink="http://www.w3.org/1999/xlink" width="257px" height="117px" xmlns="http://www.w3.org/2000/svg">
  <g transform="matrix(1 0 0 1 -1864 -3927 )">
    <path d="M 255.094900371496 115.606666666667  L 0.465572441742633 115.606666666667  C 0.465572441742633 115.606666666667  1.18518518518516 19.7333333333333  0.711111111111111 19.7333333333333  C 28.1789314584238 10.5234935182909  26.074074074074 8  46.4592592592592 8  C 66.8444444444444 8  69.6658336147698 69.368888888889  87.2296296296296 70.4  C 104.793425644489 71.431111111111  110.68570381075 -1.67315365469958  135.585185185185 0.533333333333303  C 149.427715861758 1.75999999999995  167.572216593493 44.4787301587301  186.107936507936 45.7142857142857  C 204.64365642238 46.9498412698413  208.922571203422 18.8088888888888  223.085714285714 17.6  C 237.248857368006 16.3911111111112  239.041224811438 48.0228571428571  255.094900371496 49.1428571428572  C 255.63381740403 49.0895238095238  255.094900371496 115.606666666667  255.094900371496 115.606666666667  Z " fill-rule="nonzero" fill="#2db6f4" stroke="none" transform="matrix(1 0 0 1 1864 3927 )" />
  </g>
</svg>