<?xml version="1.0" encoding="utf-8"?>
<svg version="1.1" xmlns:xlink="http://www.w3.org/1999/xlink" width="256px" height="79px" xmlns="http://www.w3.org/2000/svg">
  <g transform="matrix(1 0 0 1 -1864 -3966 )">
    <path d="M 254.80623100304 77.6005208333333  L 0.465045592705145 77.6005208333333  C 0.465045592705145 77.6005208333333  0 6.22916666666664  0.0775075987842178 6.25354166666671  C 20.8356545961002 5.6875  34.3617021276596 26.8666666666667  45.4711246200608 26.8666666666667  C 56.580547112462 26.8666666666667  73.3983286908077 -0.8125  90.9422492401215 0.234722222222132  C 108.486169789435 1.28194444444426  112.833862440344 5.45070331944579  137.705167173252 7.69166666666669  C 151.532033426184 8.9375  166.211699164345 50.6458333333333  184.726443768997 51.9006944444444  C 203.241188373648 53.1555555555556  218.892397829161 54.7263888888887  233.039513677811 53.498611111111  C 247.186629526462 52.2708333333333  238.189415041783 25.7291666666666  254.224924012158 26.8666666666667  C 254.763231197772 26.8125  254.80623100304 77.6005208333333  254.80623100304 77.6005208333333  Z " fill-rule="nonzero" fill="#4ad2e7" stroke="none" transform="matrix(1 0 0 1 1864 3966 )" />
  </g>
</svg>