<?xml version="1.0" encoding="utf-8"?>
<svg version="1.1" xmlns:xlink="http://www.w3.org/1999/xlink" width="480px" height="201px" xmlns="http://www.w3.org/2000/svg">
  <g transform="matrix(1 0 0 1 -3484 -4010 )">
    <path d="M 477.306473741979 199.32183908046  L 0.871129685916879 199.32183908046  C 0.871129685916879 199.32183908046  2.21759259259254 34.0229885057471  1.33055555555556 34.0229885057471  C 52.7254225335352 18.1439543418808  48.7870370370368 13.7931034482759  86.9296296296295 13.7931034482759  C 125.072222222222 13.7931034482759  130.351305865136 119.60153256705  163.214814814815 121.379310344828  C 196.078323764494 123.157088122605  207.103328614645 -2.88474768051652  253.692592592593 0.919540229885005  C 279.593265225712 3.0344827586206  313.543327141731 76.687465790914  348.225396825397 78.8177339901477  C 382.907466509062 80.9480021893815  390.913717212653 32.4291187739463  417.414285714286 30.3448275862069  C 443.914854215918 28.2605363984675  447.268541737026 82.7980295566502  477.306473741979 84.7290640394089  C 478.314838033322 84.6371100164203  477.306473741979 199.32183908046  477.306473741979 199.32183908046  Z " fill-rule="nonzero" fill="#2db6f4" stroke="none" transform="matrix(1 0 0 1 3484 4010 )" />
  </g>
</svg>