<?xml version="1.0" encoding="utf-8"?>
<svg version="1.1" xmlns:xlink="http://www.w3.org/1999/xlink" width="479px" height="136px" xmlns="http://www.w3.org/2000/svg">
  <g transform="matrix(1 0 0 1 -3484 -4077 )">
    <path d="M 477.636778115502 134.30859375  L 0.871732522796312 134.30859375  C 0.871732522796312 134.30859375  0 10.7812499999999  0.145288753799436 10.8234375000001  C 39.0566388115134 9.84375  64.4113475177305 46.5000000000001  85.2360688956433 46.5000000000001  C 106.060790273556 46.5000000000001  137.585886722377 -1.40625  170.472137791287 0.406249999999844  C 203.358388860196 2.21874999999969  211.508181358763 9.43390959134849  258.12968591692 13.3125  C 284.048282265552 15.46875  311.565459610028 87.6562499999999  346.271529888551 89.8281249999999  C 380.977600167074 92  410.315945734662 94.7187499999998  436.834853090172 92.5937499999998  C 463.353760445682 90.4687499999999  446.488393686165 44.5312499999999  476.547112462006 46.5000000000001  C 477.55617455896 46.40625  477.636778115502 134.30859375  477.636778115502 134.30859375  Z " fill-rule="nonzero" fill="#4ad2e7" stroke="none" transform="matrix(1 0 0 1 3484 4077 )" />
  </g>
</svg>