<?xml version="1.0" encoding="utf-8"?>
<svg version="1.1" xmlns:xlink="http://www.w3.org/1999/xlink" width="147px" height="67px" xmlns="http://www.w3.org/2000/svg">
  <g transform="matrix(1 0 0 1 -3394 -4372 )">
    <path d="M 145.483810368119 65.7762068965517  L 0.265521783181345 65.7762068965517  C 0.265521783181345 65.7762068965517  0.675925925925911 11.2275862068965  0.405555555555556 11.2275862068965  C 16.0707968473823 5.98750493282068  14.8703703703703 4.55172413793103  26.4962962962963 4.55172413793103  C 38.1222222222222 4.55172413793103  39.7312957334234 39.4685057471265  49.7481481481481 40.0551724137931  C 59.7650005628729 40.6418390804597  63.1254404545681 -0.951966734570451  77.3259259259259 0.303448275862052  C 85.220494202409 1.0013793103448  95.5685297759766 25.3068637110016  106.139682539683 26.0098522167488  C 116.710835303388 26.7128407224959  119.151153889452 10.7016091954023  127.228571428571 10.0137931034483  C 135.305988967691 9.32597701149428  136.328198525273 27.3233497536945  145.483810368119 27.9605911330049  C 145.791161488236 27.9302463054187  145.483810368119 65.7762068965517  145.483810368119 65.7762068965517  Z " fill-rule="nonzero" fill="#2db6f4" stroke="none" transform="matrix(1 0 0 1 3394 4372 )" />
  </g>
</svg>