<?xml version="1.0" encoding="utf-8"?>
<svg version="1.1" xmlns:xlink="http://www.w3.org/1999/xlink" width="146px" height="45px" xmlns="http://www.w3.org/2000/svg">
  <g transform="matrix(1 0 0 1 -3394 -4394 )">
    <path d="M 144.889817629179 43.7746527777778  L 0.264437689969592 43.7746527777778  C 0.264437689969592 43.7746527777778  0 3.51388888888887  0.0440729483282807 3.52763888888891  C 11.8477251624884 3.20833333333333  19.5390070921986 15.1555555555556  25.8561296859169 15.1555555555556  C 32.1732522796353 15.1555555555556  41.736304549675 -0.458333333333333  51.7122593718338 0.132407407407356  C 61.6882141939926 0.723148148148046  64.1604315837252 3.07475571866173  78.3029381965552 4.3388888888889  C 86.1652739090065 5.04166666666667  94.5125348189415 28.5694444444444  105.040526849037 29.2773148148148  C 115.568518879133 29.9851851851852  124.468226216581 30.8712962962962  132.512664640324 30.1787037037036  C 140.557103064067 29.4861111111111  135.44103992572 14.5138888888889  144.559270516717 15.1555555555556  C 144.865366759517 15.125  144.889817629179 43.7746527777778  144.889817629179 43.7746527777778  Z " fill-rule="nonzero" fill="#4ad2e7" stroke="none" transform="matrix(1 0 0 1 3394 4394 )" />
  </g>
</svg>