<?xml version="1.0" encoding="utf-8"?>
<svg version="1.1" xmlns:xlink="http://www.w3.org/1999/xlink" width="8px" height="8px" xmlns="http://www.w3.org/2000/svg">
  <g transform="matrix(1 0 0 1 -3427 -275 )">
    <path d="M 3431 276  C 3432.68 276  3434 277.32  3434 279  C 3434 280.68  3432.68 282  3431 282  C 3429.32 282  3428 280.68  3428 279  C 3428 277.32  3429.32 276  3431 276  Z " fill-rule="nonzero" fill="#e9e9e9" stroke="none" />
    <path d="M 3431 276  C 3432.68 276  3434 277.32  3434 279  C 3434 280.68  3432.68 282  3431 282  C 3429.32 282  3428 280.68  3428 279  C 3428 277.32  3429.32 276  3431 276  Z " stroke-width="2" stroke="#e9e9e9" fill="none" />
  </g>
</svg>