<?xml version="1.0" encoding="utf-8"?>
<svg version="1.1" xmlns:xlink="http://www.w3.org/1999/xlink" width="22px" height="22px" xmlns="http://www.w3.org/2000/svg">
  <defs>
    <filter x="3039px" y="861px" width="22px" height="22px" filterUnits="userSpaceOnUse" id="filter22">
      <feOffset dx="0" dy="0" in="SourceAlpha" result="shadowOffsetInner" />
      <feGaussianBlur stdDeviation="2" in="shadowOffsetInner" result="shadowGaussian" />
      <feComposite in2="shadowGaussian" operator="atop" in="SourceAlpha" result="shadowComposite" />
      <feColorMatrix type="matrix" values="0 0 0 0 0  0 0 0 0 0  0 0 0 0 0  0 0 0 0.149019607843137 0  " in="shadowComposite" />
    </filter>
    <g id="widget23">
      <path d="M 3050 866  C 3053.36 866  3056 868.64  3056 872  C 3056 875.36  3053.36 878  3050 878  C 3046.64 878  3044 875.36  3044 872  C 3044 868.64  3046.64 866  3050 866  Z " fill-rule="nonzero" fill="#108ee9" stroke="none" />
      <path d="M 3050 866  C 3053.36 866  3056 868.64  3056 872  C 3056 875.36  3053.36 878  3050 878  C 3046.64 878  3044 875.36  3044 872  C 3044 868.64  3046.64 866  3050 866  Z " stroke-width="2" stroke="#6dbdf8" fill="none" />
    </g>
  </defs>
  <g transform="matrix(1 0 0 1 -3039 -861 )">
    <use xlink:href="#widget23" filter="url(#filter22)" />
    <use xlink:href="#widget23" />
  </g>
</svg>