<?xml version="1.0" encoding="utf-8"?>
<svg version="1.1" xmlns:xlink="http://www.w3.org/1999/xlink" width="79px" height="10px" preserveAspectRatio="xMinYMid meet" viewBox="733 235  79 8" xmlns="http://www.w3.org/2000/svg">
  <path d="M 734 239.5  L 802 239.5  A 5 5 0 0 1 807.5 244.5 L 807.5 375  A 5 5 0 0 1 802.5 380.5 L 688 380.5  A 5 5 0 0 0 683.5 385.5 L 683.5 394  " stroke-width="1" stroke="#015478" fill="none" stroke-opacity="0.52156862745098" />
  <path d="M 736 236.5  A 3 3 0 0 0 733 239.5 A 3 3 0 0 0 736 242.5 A 3 3 0 0 0 739 239.5 A 3 3 0 0 0 736 236.5 Z " fill-rule="nonzero" fill="#015478" stroke="none" fill-opacity="0.52156862745098" />
</svg>