<?xml version="1.0" encoding="utf-8"?>
<svg version="1.1" xmlns:xlink="http://www.w3.org/1999/xlink" width="10px" height="210px" preserveAspectRatio="xMidYMin meet" viewBox="957 419  8 210" xmlns="http://www.w3.org/2000/svg">
  <defs>
    <mask fill="white" id="clip15">
      <path d="M 932 410  L 966 410  L 966 438  L 932 438  Z M 724 410  L 966 410  L 966 629  L 724 629  Z " fill-rule="evenodd" />
    </mask>
  </defs>
  <path d="M 734 424.5  L 956 424.5  A 5 5 0 0 1 961.5 429.5 L 961.5 629  " stroke-width="1" stroke="#015478" fill="none" stroke-opacity="0.52156862745098" mask="url(#clip15)" />
  <path d="M 736 421.5  A 3 3 0 0 0 733 424.5 A 3 3 0 0 0 736 427.5 A 3 3 0 0 0 739 424.5 A 3 3 0 0 0 736 421.5 Z " fill-rule="nonzero" fill="#015478" stroke="none" fill-opacity="0.52156862745098" mask="url(#clip15)" />
</svg>